{
  "accessors": [
    {
      "bufferView": 2,
      "componentType": 5126,
      "count": 2001,
      "max": [
        2.177377462387085,
        2.978013515472412,
        1.872679591178894
      ],
      "min": [
        -2.177377462387085,
        -1.650856375694275,
        -2.6209540367126465
      ],
      "type": "VEC3"
    },
    {
      "bufferView": 2,
      "byteOffset": 24012,
      "componentType": 5126,
      "count": 2001,
      "max": [
        0.9997566938400269,
        0.9994322657585144,
        0.9998618364334106
      ],
      "min": [
        -0.9997567534446716,
        -0.9996117949485779,
        -0.9999854564666748
      ],
      "type": "VEC3"
    },
    {
      "bufferView": 3,
      "componentType": 5126,
      "count": 2001,
      "max": [
        0.9995735883712769,
        0.9999855160713196,
        0.9986610412597656,
        1.0
      ],
      "min": [
        -0.9995735883712769,
        -0.9998618364334106,
        -0.9996118545532227,
        -1.0
      ],
      "type": "VEC4"
    },
    {
      "bufferView": 1,
      "componentType": 5126,
      "count": 2001,
      "max": [
        0.9854687452316284,
        0.9976087808609009
      ],
      "min": [
        0.012297564186155796,
        0.003370152786374092
      ],
      "type": "VEC2"
    },
    {
      "bufferView": 1,
      "byteOffset": 16008,
      "componentType": 5126,
      "count": 2001,
      "max": [
        0.9854687452316284,
        0.9976087808609009
      ],
      "min": [
        0.012297564186155796,
        0.003370152786374092
      ],
      "type": "VEC2"
    },
    {
      "bufferView": 0,
      "componentType": 5125,
      "count": 8100,
      "type": "SCALAR"
    }
  ],
  "asset": {
    "extras": {
      "author": "EL-O461 (https://sketchfab.com/EL-O461)",
      "license": "CC-BY-4.0 (http://creativecommons.org/licenses/by/4.0/)",
      "source": "https://sketchfab.com/3d-models/hand-painted-backpack-f3058e8fdf6a405abc1b89dcd82d923e",
      "title": "Hand-Painted Backpack"
    },
    "generator": "Sketchfab-15.25.0",
    "version": "2.0"
  },
  "bufferViews": [
    {
      "buffer": 0,
      "byteLength": 32400,
      "name": "floatBufferViews",
      "target": 34963
    },
    {
      "buffer": 0,
      "byteLength": 32016,
      "byteOffset": 32400,
      "byteStride": 8,
      "name": "floatBufferViews",
      "target": 34962
    },
    {
      "buffer": 0,
      "byteLength": 48024,
      "byteOffset": 64416,
      "byteStride": 12,
      "name": "floatBufferViews",
      "target": 34962
    },
    {
      "buffer": 0,
      "byteLength": 32016,
      "byteOffset": 112440,
      "byteStride": 16,
      "name": "floatBufferViews",
      "target": 34962
    }
  ],
  "buffers": [
    {
      "byteLength": 144456,
      "uri": "scene.bin"
    }
  ],
  "extensionsUsed": [
    "KHR_materials_specular"
  ],
  "images": [
    {
      "uri": "textures/M_Backpack_Base_baseColor.png"
    },
    {
      "uri": "textures/M_Backpack_Base_metallicRoughness.png"
    },
    {
      "uri": "textures/M_Backpack_Base_normal.png"
    }
  ],
  "materials": [
    {
      "doubleSided": true,
      "extensions": {
        "KHR_materials_specular": {
          "specularColorFactor": [
            1.0,
            1.0,
            1.0
          ],
          "specularFactor": 0.0
        }
      },
      "name": "M_Backpack_Base",
      "normalTexture": {
        "index": 2
      },
      "pbrMetallicRoughness": {
        "baseColorTexture": {
          "index": 0
        },
        "metallicFactor": 0.125,
        "metallicRoughnessTexture": {
          "index": 1
        }
      }
    }
  ],
  "meshes": [
    {
      "name": "M_BackPack_LOD0_M_Backpack_Base_0",
      "primitives": [
        {
          "attributes": {
            "NORMAL": 1,
            "POSITION": 0,
            "TANGENT": 2,
            "TEXCOORD_0": 3,
            "TEXCOORD_1": 4
          },
          "indices": 5,
          "material": 0,
          "mode": 4
        }
      ]
    }
  ],
  "nodes": [
    {
      "children": [
        1
      ],
      "matrix": [
        1.0,
        0.0,
        0.0,
        0.0,
        0.0,
        2.220446049250313e-16,
        -1.0,
        0.0,
        0.0,
        1.0,
        2.220446049250313e-16,
        0.0,
        0.0,
        0.0,
        0.0,
        1.0
      ],
      "name": "Sketchfab_model"
    },
    {
      "children": [
        2
      ],
      "matrix": [
        0.009999999776482582,
        0.0,
        0.0,
        0.0,
        0.0,
        0.0,
        0.009999999776482582,
        0.0,
        0.0,
        -0.009999999776482582,
        0.0,
        0.0,
        0.0,
        0.0,
        0.0,
        1.0
      ],
      "name": "Backpack_LOD0.fbx"
    },
    {
      "children": [
        3
      ],
      "name": "RootNode"
    },
    {
      "children": [
        4
      ],
      "matrix": [
        75.0,
        0.0,
        0.0,
        0.0,
        0.0,
        75.0,
        0.0,
        0.0,
        0.0,
        0.0,
        75.0,
        0.0,
        0.0,
        0.0,
        0.0,
        1.0
      ],
      "name": "M_BackPack_LOD0"
    },
    {
      "mesh": 0,
      "name": "M_BackPack_LOD0_M_Backpack_Base_0"
    }
  ],
  "samplers": [
    {
      "magFilter": 9729,
      "minFilter": 9987,
      "wrapS": 10497,
      "wrapT": 10497
    }
  ],
  "scene": 0,
  "scenes": [
    {
      "name": "Sketchfab_Scene",
      "nodes": [
        0
      ]
    }
  ],
  "textures": [
    {
      "sampler": 0,
      "source": 0
    },
    {
      "sampler": 0,
      "source": 1
    },
    {
      "sampler": 0,
      "source": 2
    }
  ]
}
